<svg width="216" height="32" viewBox="0 0 216 32" fill="none" xmlns="http://www.w3.org/2000/svg">
<path d="M8.47854 24.5818C7.30676 24.6548 6.13342 24.4664 5.04335 24.0304C3.95328 23.5944 2.97372 22.9216 2.17551 22.0606C0.734815 20.4398 0.014468 18.0687 0.014468 14.9472C-0.119948 12.5193 0.686251 10.1329 2.26555 8.28398C3.06928 7.461 4.039 6.81856 5.11025 6.39937C6.18149 5.98019 7.32971 5.79388 8.47854 5.85282C9.64279 5.77474 10.8101 5.95184 11.8988 6.37177C12.9874 6.79169 13.9713 7.4443 14.7816 8.28398C16.2223 9.90476 16.9426 12.2459 16.9426 15.3074C16.9622 15.67 16.932 16.0335 16.8526 16.3879H4.78676C4.79494 17.5007 5.10623 18.5902 5.6872 19.5394C6.08283 20.0041 6.58271 20.3686 7.14604 20.6034C7.70938 20.8381 8.32023 20.9363 8.92875 20.89C9.63755 20.8847 10.3281 20.6649 10.9097 20.2597C11.176 20.1028 11.4086 19.8947 11.594 19.6474C11.7795 19.4002 11.9141 19.1186 11.9902 18.819H16.7625C16.4082 20.5351 15.4091 22.0498 13.9712 23.0511C12.3439 24.1199 10.424 24.6549 8.47854 24.5818ZM12.0803 13.4165C12.0486 12.5173 11.7681 11.6445 11.2699 10.8952C10.935 10.4877 10.5057 10.1681 10.0192 9.96415C9.53279 9.76016 9.00393 9.67796 8.47854 9.72468C7.9363 9.69009 7.39434 9.79629 6.90525 10.0329C6.41617 10.2696 5.99657 10.6287 5.6872 11.0753C5.26036 11.7923 4.98459 12.589 4.87681 13.4165H12.0803ZM24.9565 24.5818C23.8994 24.6137 22.8499 24.3935 21.8948 23.9394C20.9397 23.4853 20.1064 22.8105 19.4638 21.9706C17.9906 19.9352 17.2596 17.4562 17.3928 14.9472C17.282 12.5799 18.016 10.2503 19.4638 8.37403C20.1206 7.55605 20.959 6.90231 21.9124 6.46469C22.8658 6.02706 23.908 5.81758 24.9565 5.85282C25.9125 5.8367 26.8575 6.0587 27.7063 6.49883C28.5551 6.93897 29.2811 7.5834 29.8188 8.37403L29.9989 8.64415V0.0900384H34.6811V24.1316H30.0889V21.8805H29.9989C29.4475 22.7129 28.6982 23.3953 27.8182 23.8668C26.9381 24.3383 25.9548 24.584 24.9565 24.5818ZM26.2171 9.90477C25.6404 9.87469 25.0656 9.99102 24.546 10.2429C24.0265 10.4948 23.5791 10.8741 23.2456 11.3455C22.4587 12.5446 22.0798 13.9657 22.1651 15.3974C22.0865 16.8002 22.4657 18.1907 23.2456 19.3593C23.5791 19.8307 24.0265 20.2099 24.546 20.4618C25.0656 20.7138 25.6404 20.8301 26.2171 20.8C26.8019 20.8202 27.3822 20.6902 27.9024 20.4222C28.4226 20.1542 28.8654 19.7572 29.1885 19.2693C29.9709 18.0347 30.3486 16.5867 30.269 15.1273C30.3345 13.7821 29.9548 12.4529 29.1885 11.3455C28.8493 10.8801 28.4009 10.5053 27.8827 10.254C27.3645 10.0028 26.7925 9.88286 26.2171 9.90477ZM41.9746 17.4684C41.9036 18.3402 42.1605 19.2072 42.695 19.8996C42.9766 20.1809 43.3151 20.3988 43.6878 20.5386C44.0605 20.6783 44.4589 20.7368 44.856 20.71C45.3722 20.7466 45.89 20.6688 46.3726 20.482C46.8551 20.2952 47.2904 20.0041 47.6474 19.6294C48.3708 18.7105 48.7241 17.5542 48.6378 16.3879V6.39306H53.3201V24.2216H48.8179V21.5203L48.1876 22.4208C47.587 23.1703 46.8161 23.7656 45.9391 24.1571C45.062 24.5487 44.1042 24.7251 43.1452 24.6719C42.3372 24.7269 41.5266 24.611 40.7664 24.3318C40.0062 24.0525 39.3133 23.6161 38.7331 23.0511C37.6081 21.7941 37.0256 20.1435 37.1123 18.4589V6.39306H41.7946L41.9746 17.4684ZM60.3435 24.5818C58.8853 24.6378 57.4632 24.1207 56.3816 23.1411C55.8794 22.6693 55.4833 22.0962 55.2194 21.4598C54.9555 20.8233 54.8298 20.138 54.8508 19.4493C54.7843 18.0328 55.2683 16.6454 56.2015 15.5775C57.2752 14.5386 58.6747 13.9025 60.1634 13.7766L63.2248 13.3264C63.9094 13.2512 64.5779 13.0689 65.2058 12.7861C65.333 12.7219 65.4462 12.6331 65.5389 12.5249C65.6316 12.4168 65.702 12.2913 65.7461 12.1558C65.8916 11.8793 65.9542 11.5666 65.9261 11.2554C65.8891 11.0115 65.7968 10.7792 65.6564 10.5764C65.5159 10.3735 65.331 10.2054 65.1158 10.0848C64.4021 9.68711 63.5904 9.49978 62.7746 9.54458C62.0306 9.49546 61.2942 9.71959 60.7036 10.1749C60.4385 10.4117 60.2286 10.7037 60.0886 11.0304C59.9486 11.3571 59.8819 11.7105 59.8932 12.0658H55.3911C55.3765 11.1731 55.5631 10.2887 55.9373 9.47805C56.3114 8.66745 56.8634 7.95156 57.5521 7.38355C58.8728 6.36306 60.8237 5.85282 63.4049 5.85282C65.2545 5.76737 67.0833 6.27187 68.6274 7.2935C69.2282 7.72087 69.7148 8.28922 70.0445 8.94863C70.3742 9.60804 70.5369 10.3383 70.5184 11.0753V21.0701C70.4781 21.6465 70.5391 22.2256 70.6984 22.781C70.8645 23.1174 71.1552 23.3759 71.5088 23.5013V24.1316H66.3764C66.1635 23.4564 66.0128 22.7632 65.9261 22.0606C65.2326 22.8823 64.3619 23.536 63.3793 23.9727C62.3968 24.4093 61.328 24.6176 60.2534 24.5818H60.3435ZM66.0162 17.5584V15.4874C65.3358 15.834 64.6074 16.0768 63.8552 16.2078L62.1443 16.568C61.4486 16.6485 60.7915 16.9301 60.2534 17.3784C60.0487 17.5764 59.8871 17.8146 59.7787 18.078C59.6702 18.3414 59.6173 18.6243 59.6231 18.9091C59.5963 19.2158 59.6302 19.5247 59.7229 19.8183C59.8156 20.1119 59.9653 20.3843 60.1634 20.6199C60.3717 20.8362 60.6245 21.0046 60.9044 21.1134C61.1843 21.2223 61.4845 21.2689 61.7842 21.2502C62.4682 21.2716 63.1481 21.1367 63.7722 20.8559C64.3964 20.575 64.9482 20.1556 65.3859 19.6294C65.595 19.3626 65.7481 19.0564 65.8361 18.729C65.9215 18.3451 65.9519 17.9509 65.9261 17.5584H66.0162ZM72.9495 6.39306H77.4517V9.54458L77.992 8.55411C78.4045 7.78436 79.0132 7.13738 79.7565 6.67879C80.4997 6.2202 81.351 5.9663 82.224 5.94285H83.3045V10.7151H81.8638C81.2784 10.6655 80.6891 10.7357 80.1317 10.9215C79.5744 11.1073 79.0608 11.4047 78.6223 11.7957C78.2357 12.237 77.941 12.751 77.7555 13.3076C77.5699 13.8642 77.4973 14.4522 77.5417 15.0372V24.3117H72.9495V6.39306ZM90.8681 24.6719C89.8111 24.7037 88.7616 24.4835 87.8065 24.0294C86.8514 23.5754 86.0181 22.9005 85.3755 22.0606C83.9023 20.0252 83.1713 17.5463 83.3045 15.0372C83.1937 12.6699 83.9277 10.3403 85.3755 8.46406C86.0323 7.64608 86.8707 6.99236 87.8241 6.55474C88.7775 6.11711 89.8197 5.90761 90.8681 5.94285C91.8242 5.92673 92.7692 6.14875 93.618 6.58888C94.4668 7.02901 95.1928 7.67343 95.7305 8.46406L95.9106 8.7342V0.180088H100.593V24.2216H96.0006V21.9706H95.9106C95.349 22.7862 94.5952 23.4511 93.7158 23.9065C92.8364 24.3619 91.8584 24.5939 90.8681 24.5818V24.6719ZM92.1288 9.99479C91.5521 9.96472 90.9773 10.081 90.4577 10.333C89.9382 10.5849 89.4908 10.9642 89.1573 11.4355C88.3704 12.6347 87.9915 14.0557 88.0768 15.4874C87.9981 16.8903 88.3773 18.2807 89.1573 19.4493C89.5075 19.9096 89.9608 20.2812 90.4809 20.5342C91.001 20.7871 91.5732 20.9143 92.1515 20.9055C92.7298 20.8968 93.2979 20.7523 93.81 20.4837C94.3222 20.2151 94.7641 19.83 95.1002 19.3593C95.8826 18.1247 96.2603 16.6768 96.1807 15.2173C96.2462 13.8722 95.8664 12.543 95.1002 11.4355C94.7711 10.9535 94.3271 10.5612 93.8083 10.2939C93.2895 10.0267 92.7122 9.89292 92.1288 9.90477V9.99479ZM104.555 22.1506C103.717 21.2458 103.07 20.1816 102.652 19.0213C102.234 17.8611 102.055 16.6286 102.124 15.3974C102.051 14.1384 102.228 12.8775 102.645 11.6874C103.063 10.4974 103.712 9.40182 104.555 8.46406C106.378 6.80631 108.754 5.88774 111.218 5.88774C113.682 5.88774 116.058 6.80631 117.881 8.46406C118.724 9.40182 119.373 10.4974 119.791 11.6874C120.208 12.8775 120.385 14.1384 120.312 15.3974C120.376 16.6281 120.194 17.8592 119.776 19.0187C119.359 20.1783 118.715 21.243 117.881 22.1506C116.04 23.7714 113.671 24.6654 111.218 24.6654C108.765 24.6654 106.396 23.7714 104.555 22.1506ZM114.369 19.3593C115.182 18.1716 115.563 16.7417 115.45 15.3074C115.562 13.8448 115.182 12.3868 114.369 11.1654C113.964 10.7203 113.471 10.3647 112.92 10.1213C112.37 9.87801 111.775 9.75232 111.173 9.75232C110.571 9.75232 109.976 9.87801 109.425 10.1213C108.875 10.3647 108.381 10.7203 107.976 11.1654C107.164 12.3868 106.784 13.8448 106.896 15.3074C106.79 16.7411 107.171 18.1686 107.976 19.3593C108.388 19.7925 108.884 20.1374 109.434 20.373C109.983 20.6087 110.575 20.7302 111.173 20.7302C111.771 20.7302 112.362 20.6087 112.912 20.373C113.461 20.1374 113.957 19.7925 114.369 19.3593ZM121.843 6.39306H126.345V9.00433L126.615 8.55411C127.154 7.71003 127.901 7.01841 128.784 6.54545C129.667 6.07249 130.656 5.83402 131.658 5.85282C132.692 5.82467 133.719 6.03784 134.657 6.47546C135.595 6.91308 136.417 7.56312 137.06 8.37403C138.501 10.2539 139.234 12.5809 139.131 14.9472C139.257 17.4554 138.527 19.932 137.06 21.9706C136.432 22.8034 135.614 23.4746 134.674 23.9286C133.735 24.3827 132.701 24.6066 131.658 24.5818C130.689 24.597 129.732 24.3751 128.869 23.9357C128.006 23.4963 127.263 22.8526 126.705 22.0606H126.615V31.155H121.933L121.843 6.39306ZM130.307 20.8C130.883 20.8219 131.455 20.702 131.973 20.4507C132.491 20.1995 132.939 19.8247 133.279 19.3593C134.065 18.1934 134.444 16.8009 134.359 15.3974C134.438 13.9663 134.06 12.5472 133.279 11.3455C132.934 10.8971 132.491 10.534 131.983 10.2841C131.476 10.0343 130.918 9.90431 130.352 9.90431C129.787 9.90431 129.229 10.0343 128.721 10.2841C128.214 10.534 127.771 10.8971 127.426 11.3455C126.643 12.58 126.266 14.028 126.345 15.4874C126.28 16.8326 126.659 18.1618 127.426 19.2693C127.746 19.7385 128.176 20.123 128.678 20.3896C129.18 20.6562 129.739 20.797 130.307 20.8ZM145.074 24.6719C143.616 24.7279 142.194 24.2107 141.112 23.2312C140.61 22.7594 140.214 22.1863 139.95 21.5498C139.686 20.9134 139.561 20.2281 139.582 19.5394C139.515 18.1228 139.999 16.7354 140.932 15.6675C142.006 14.6287 143.405 13.9925 144.894 13.8667L147.956 13.4165C148.64 13.3412 149.309 13.1589 149.937 12.8762C150.064 12.8119 150.177 12.7232 150.27 12.615C150.362 12.5068 150.433 12.3814 150.477 12.2459C150.622 11.9694 150.685 11.6567 150.657 11.3455C150.62 11.1015 150.528 10.8693 150.387 10.6664C150.247 10.4636 150.062 10.2955 149.846 10.1749C149.133 9.77716 148.321 9.58983 147.505 9.63463C146.761 9.58551 146.025 9.80963 145.434 10.2649C145.169 10.5017 144.959 10.7938 144.819 11.1205C144.679 11.4472 144.613 11.8006 144.624 12.1558H140.122C140.107 11.2632 140.294 10.3787 140.668 9.5681C141.042 8.7575 141.594 8.0416 142.283 7.47359C143.603 6.4531 145.554 5.94285 148.136 5.94285C149.985 5.8574 151.814 6.36192 153.358 7.38355C153.959 7.81092 154.446 8.37926 154.775 9.03867C155.105 9.69808 155.268 10.4284 155.249 11.1654V21.1602C155.209 21.7366 155.27 22.3156 155.429 22.871C155.595 23.2075 155.886 23.4659 156.24 23.5913V24.2216H151.197C150.984 23.5465 150.834 22.8532 150.747 22.1506C150.035 22.9682 149.146 23.6122 148.147 24.0336C147.148 24.4549 146.066 24.6425 144.984 24.5818L145.074 24.6719ZM150.747 17.6485V15.5775C150.067 15.9241 149.338 16.1669 148.586 16.2978L146.875 16.658C146.179 16.7386 145.522 17.0202 144.984 17.4684C144.779 17.6665 144.618 17.9047 144.509 18.168C144.401 18.4314 144.348 18.7143 144.354 18.9991C144.327 19.3058 144.361 19.6148 144.454 19.9083C144.546 20.2019 144.696 20.4743 144.894 20.71C145.102 20.9262 145.355 21.0946 145.635 21.2035C145.915 21.3123 146.215 21.359 146.515 21.3403C147.199 21.3616 147.879 21.2268 148.503 20.9459C149.127 20.6651 149.679 20.2456 150.117 19.7195C150.326 19.4526 150.479 19.1464 150.567 18.819C150.661 18.4059 150.692 17.9808 150.657 17.5584L150.747 17.6485ZM156.059 6.39306H161.192L164.974 19.7195L168.756 6.39306H173.708L167.315 24.2216H162.453L156.059 6.39306ZM179.021 24.6719C177.562 24.7279 176.14 24.2107 175.059 23.2312C174.556 22.7594 174.16 22.1863 173.896 21.5498C173.633 20.9134 173.507 20.2281 173.528 19.5394C173.461 18.1228 173.945 16.7354 174.879 15.6675C175.952 14.6287 177.352 13.9925 178.84 13.8667L181.902 13.4165C182.586 13.3412 183.255 13.1589 183.883 12.8762C184.01 12.8119 184.123 12.7232 184.216 12.615C184.309 12.5068 184.379 12.3814 184.423 12.2459C184.569 11.9694 184.631 11.6567 184.603 11.3455C184.566 11.1015 184.474 10.8693 184.333 10.6664C184.193 10.4636 184.008 10.2955 183.793 10.1749C183.079 9.77716 182.267 9.58983 181.452 9.63463C180.708 9.58551 179.971 9.80963 179.381 10.2649C179.116 10.5017 178.906 10.7938 178.766 11.1205C178.626 11.4472 178.559 11.8006 178.57 12.1558H174.068C174.054 11.2632 174.24 10.3787 174.614 9.5681C174.988 8.7575 175.54 8.0416 176.229 7.47359C177.55 6.4531 179.501 5.94285 182.082 5.94285C183.932 5.8574 185.76 6.36192 187.305 7.38355C187.905 7.81092 188.392 8.37926 188.722 9.03867C189.051 9.69808 189.214 10.4284 189.195 11.1654V21.1602C189.155 21.7366 189.216 22.3156 189.376 22.871C189.542 23.2075 189.832 23.4659 190.186 23.5913V24.2216H185.143C184.931 23.5465 184.78 22.8532 184.693 22.1506C183.981 22.9682 183.092 23.6122 182.093 24.0336C181.095 24.4549 180.013 24.6425 178.93 24.5818L179.021 24.6719ZM184.693 17.6485V15.5775C184.013 15.9241 183.284 16.1669 182.532 16.2978L180.821 16.658C180.126 16.7386 179.469 17.0202 178.93 17.4684C178.726 17.6665 178.564 17.9047 178.456 18.168C178.347 18.4314 178.294 18.7143 178.3 18.9991C178.273 19.3058 178.307 19.6148 178.4 19.9083C178.493 20.2019 178.642 20.4743 178.84 20.71C179.049 20.9262 179.302 21.0946 179.581 21.2035C179.861 21.3123 180.162 21.359 180.461 21.3403C181.145 21.3616 181.825 21.2268 182.449 20.9459C183.073 20.6651 183.625 20.2456 184.063 19.7195C184.272 19.4526 184.425 19.1464 184.513 18.819C184.607 18.4059 184.638 17.9808 184.603 17.5584L184.693 17.6485ZM191.717 6.39306H196.219V9.00433L196.849 8.1039C197.45 7.35438 198.221 6.75909 199.098 6.36755C199.975 5.97601 200.933 5.79955 201.892 5.85282C202.706 5.81513 203.518 5.94783 204.278 6.24243C205.038 6.53703 205.728 6.98703 206.304 7.56363C207.429 8.8206 208.011 10.4712 207.924 12.1558V24.1316H203.242V13.0563C203.305 12.1854 203.049 11.3214 202.522 10.6251C202.24 10.3438 201.902 10.1259 201.529 9.9861C201.156 9.84633 200.758 9.78789 200.361 9.81472C199.831 9.77081 199.297 9.84493 198.799 10.0318C198.301 10.2186 197.85 10.5135 197.479 10.8952C196.756 11.8141 196.403 12.9705 196.489 14.1368V24.2216H191.807L191.717 6.39306ZM210.626 0H215.398V4.32209H210.626V0ZM210.716 6.39306H215.398V24.2216H210.716V6.39306Z" fill="white"/>
</svg>
