<svg width="1021" height="436" viewBox="0 0 1021 436" fill="none" xmlns="http://www.w3.org/2000/svg">
<path fill-rule="evenodd" clip-rule="evenodd" d="M197.619 221.188C206.394 220.949 215.104 222.757 223.059 226.47C231.014 230.182 237.996 235.696 243.45 242.575C255.672 258.522 261.892 278.263 261.018 298.336C262.086 319.613 255.892 340.622 243.45 357.916C238.117 364.981 231.179 370.675 223.21 374.527C215.24 378.379 206.468 380.279 197.619 380.068C189.403 380.197 181.281 378.315 173.959 374.587C166.637 370.859 160.337 365.399 155.607 358.681H154.843V435.829H115.123L114.359 225.771H152.551V247.922L154.843 244.103C159.417 236.942 165.752 231.076 173.241 227.063C180.73 223.051 189.124 221.028 197.619 221.188ZM337.403 221.951C353.093 221.226 368.607 225.506 381.706 234.173C386.802 237.798 390.93 242.62 393.727 248.214C396.524 253.808 397.904 260.003 397.747 266.255V351.042C397.406 355.932 397.922 360.843 399.274 365.555C400.682 368.409 403.149 370.601 406.149 371.665V377.013H363.374C361.568 371.285 360.289 365.405 359.554 359.444C353.516 366.379 345.972 371.843 337.5 375.417C329.027 378.991 319.85 380.583 310.669 380.068L311.432 380.832C299.063 381.307 286.998 376.92 277.823 368.61C273.563 364.608 270.202 359.746 267.964 354.347C265.725 348.948 264.66 343.134 264.838 337.292C264.274 325.275 268.379 313.506 276.296 304.447C285.404 295.635 297.275 290.238 309.904 289.17L335.876 285.351C341.682 284.713 347.353 283.166 352.679 280.768C353.758 280.223 354.719 279.469 355.506 278.552C356.292 277.634 356.89 276.57 357.263 275.421C358.498 273.075 359.029 270.422 358.791 267.782C358.476 265.713 357.693 263.743 356.502 262.022C355.31 260.302 353.742 258.875 351.916 257.853C345.862 254.479 338.976 252.89 332.056 253.27C325.744 252.853 319.497 254.754 314.487 258.616C312.238 260.625 310.458 263.103 309.27 265.874C308.082 268.645 307.517 271.644 307.613 274.657H269.421C269.297 267.085 270.881 259.582 274.054 252.705C277.228 245.829 281.91 239.755 287.753 234.937C298.956 226.28 315.506 221.951 337.403 221.951ZM625.374 221.951C641.063 221.226 656.578 225.506 669.676 234.173C674.773 237.798 678.9 242.62 681.697 248.214C684.494 253.808 685.875 260.003 685.717 266.255V351.042C685.376 355.932 685.893 360.843 687.245 365.555C688.653 368.409 691.12 370.601 694.12 371.665V377.013H651.344C649.539 371.285 648.26 365.405 647.525 359.444C641.487 366.379 633.943 371.843 625.47 375.417C616.998 378.991 607.82 380.583 598.638 380.068L599.403 380.832C587.033 381.307 574.969 376.92 565.794 368.61C561.534 364.608 558.173 359.746 555.934 354.347C553.696 348.948 552.63 343.134 552.808 337.292C552.244 325.275 556.349 313.506 564.265 304.447C573.373 295.635 585.246 290.238 597.875 289.17L623.845 285.351C629.652 284.713 635.323 283.166 640.65 280.768C641.729 280.223 642.69 279.469 643.476 278.552C644.263 277.634 644.86 276.57 645.234 275.421C646.469 273.075 646.999 270.422 646.761 267.782C646.447 265.713 645.664 263.743 644.472 262.022C643.281 260.302 641.713 258.875 639.886 257.853C633.833 254.479 626.947 252.89 620.027 253.27C613.715 252.853 607.467 254.754 602.458 258.616C600.209 260.625 598.429 263.103 597.241 265.874C596.053 268.645 595.487 271.644 595.584 274.657H557.391C557.267 267.085 558.85 259.581 562.024 252.705C565.198 245.829 569.88 239.755 575.723 234.937C586.926 226.28 603.477 221.951 625.374 221.951ZM480.242 338.82L512.324 225.771H554.336L500.102 377.013H458.854L404.622 225.771H448.161L480.242 338.82ZM769.718 225.554C777.158 222.232 785.284 220.736 793.42 221.188C800.325 220.868 807.222 221.994 813.667 224.493C820.112 226.992 825.964 230.809 830.848 235.7C840.391 246.363 845.333 260.366 844.597 274.657V376.249H804.878V282.295C805.408 274.907 803.236 267.578 798.766 261.672C796.378 259.285 793.506 257.437 790.344 256.251C787.183 255.065 783.803 254.569 780.434 254.797C775.936 254.424 771.411 255.053 767.184 256.638C762.958 258.223 759.135 260.724 755.991 263.963C749.854 271.758 746.857 281.568 747.589 291.462V377.013H707.869L707.105 225.771H745.298V247.922L750.644 240.284C755.739 233.926 762.279 228.875 769.718 225.554ZM907.997 377.013H868.277V225.771H907.997V377.013ZM356.076 147.423C355.473 154.819 357.652 162.173 362.186 168.047C364.575 170.434 367.447 172.281 370.609 173.467C373.771 174.652 377.15 175.148 380.519 174.921C384.898 175.232 389.291 174.572 393.384 172.987C397.478 171.403 401.17 168.933 404.198 165.755C410.335 157.96 413.332 148.151 412.6 138.257V53.4697H452.321V204.711H414.129V181.796L408.781 189.435C403.686 195.793 397.147 200.843 389.707 204.164C382.267 207.485 374.141 208.982 366.006 208.53C359.151 208.997 352.275 208.015 345.826 205.646C339.377 203.276 333.499 199.574 328.577 194.781C319.034 184.118 314.092 170.116 314.828 155.825V53.4697H354.549L356.076 147.423ZM853.341 204.711H814.384V185.615H813.621C808.857 192.535 802.462 198.175 795.002 202.038C787.542 205.901 779.246 207.869 770.845 207.767V208.53C761.878 208.801 752.975 206.933 744.873 203.081C736.771 199.229 729.702 193.504 724.251 186.379C711.753 169.113 705.552 148.084 706.682 126.799C705.742 106.717 711.969 86.9544 724.251 71.0381C729.822 64.0991 736.934 58.5533 745.022 54.8408C753.11 51.1285 761.951 49.3515 770.845 49.6504C778.955 49.5137 786.972 51.3972 794.173 55.1309C801.373 58.8645 807.531 64.3312 812.092 71.0381L813.621 73.3291V0.763672H853.341V204.711ZM943.474 49.1826C964.379 49.1826 984.532 56.9753 999.999 71.0381C1007.15 78.9931 1012.66 88.2866 1016.2 98.3818C1019.74 108.477 1021.24 119.174 1020.62 129.854C1021.16 140.295 1019.62 150.738 1016.08 160.574C1012.54 170.411 1007.07 179.443 999.999 187.143C984.379 200.891 964.283 208.476 943.474 208.476C931.136 208.476 919.049 205.809 907.997 200.772V208.202H867.512V171.537H875.731C873.817 168.03 872.17 164.374 870.81 160.597C867.267 150.754 865.742 140.299 866.326 129.854C865.708 119.174 867.212 108.477 870.752 98.3818C874.292 88.2866 879.797 78.9932 886.95 71.0381C902.417 56.9753 922.57 49.1827 943.474 49.1826ZM71.9245 48.8867C81.8009 48.2243 91.7027 49.7269 100.938 53.2891C110.174 56.8513 118.521 62.3867 125.394 69.5098C137.616 83.2589 143.726 103.119 143.726 129.09C143.893 132.166 143.636 135.251 142.963 138.257H40.6071C40.6765 147.697 43.3165 156.94 48.2448 164.991C51.601 168.933 55.842 172.025 60.6208 174.017C65.3996 176.008 70.5816 176.842 75.7438 176.449C81.7566 176.404 87.615 174.539 92.5485 171.102C94.8074 169.77 96.78 168.005 98.3532 165.907C99.9264 163.81 101.069 161.421 101.715 158.88H142.199C139.193 173.437 130.717 186.287 118.519 194.781C104.715 203.848 88.4282 208.387 71.9245 207.767C61.9844 208.385 52.0309 206.788 42.7839 203.089C33.5367 199.39 25.2261 193.682 18.4548 186.379C6.23337 172.63 0.122785 152.515 0.122727 126.035C-1.01754 105.439 5.82203 85.1946 19.2194 69.5098C26.0374 62.5285 34.2639 57.0784 43.3512 53.5225C52.4386 49.9666 62.179 48.3867 71.9245 48.8867ZM537.872 48.8867C553.561 48.1619 569.076 52.4409 582.174 61.1074C587.271 64.7328 591.399 69.5546 594.196 75.1484C596.993 80.7422 598.373 86.9374 598.216 93.1895V177.977C597.874 182.866 598.391 187.778 599.743 192.489C601.151 195.344 603.618 197.537 606.618 198.601V203.947H563.079C561.273 198.22 559.995 192.339 559.259 186.379C553.376 193.349 545.989 198.894 537.654 202.599C529.435 206.252 520.505 208.019 511.517 207.776C499.282 208.147 487.372 203.769 478.292 195.545C474.032 191.543 470.671 186.681 468.432 181.282C466.194 175.883 465.128 170.07 465.306 164.228C464.742 152.211 468.847 140.441 476.763 131.382C485.872 122.569 497.744 117.172 510.373 116.104L536.343 112.286C542.15 111.648 547.821 110.101 553.148 107.702C554.227 107.157 555.188 106.404 555.974 105.486C556.761 104.569 557.357 103.505 557.731 102.355C558.966 100.01 559.497 97.357 559.259 94.7168C558.945 92.6477 558.162 90.6778 556.97 88.957C555.779 87.2362 554.211 85.8099 552.384 84.7871C546.331 81.4131 539.444 79.8241 532.524 80.2041C526.212 79.7875 519.965 81.6885 514.956 85.5508C512.707 87.5594 510.926 90.0372 509.738 92.8086C508.55 95.58 507.985 98.5782 508.082 101.592H469.889C469.765 94.0194 471.348 86.5161 474.522 79.6396C477.696 72.7633 482.379 66.6905 488.221 61.8721C499.424 53.2151 515.975 48.8867 537.872 48.8867ZM294.204 203.947H255.248V184.852H254.484C249.807 191.912 243.451 197.702 235.985 201.701C228.519 205.701 220.178 207.785 211.709 207.767C202.742 208.037 193.839 206.169 185.737 202.317C177.635 198.466 170.565 192.74 165.114 185.615C152.616 168.349 146.416 147.32 147.546 126.035C146.606 105.953 152.832 86.1907 165.114 70.2744C170.686 63.3354 177.798 57.7896 185.885 54.0771C193.973 50.3647 202.815 48.5878 211.709 48.8867C219.819 48.75 227.835 50.6326 235.036 54.3662C242.236 58.0999 248.395 63.5674 252.957 70.2744L254.484 72.5654V0H294.204V203.947ZM706.682 90.1338H694.461C689.495 89.7125 684.494 90.3088 679.766 91.8848C675.039 93.4608 670.681 95.9834 666.962 99.2998C663.682 103.044 661.183 107.404 659.609 112.126C658.035 116.848 657.418 121.836 657.796 126.799V205.475H618.84V53.4697H657.032V80.2041L661.615 71.8018C665.114 65.2719 670.279 59.7838 676.584 55.8936C682.888 52.0033 690.11 49.8494 697.515 49.6504H706.682V90.1338ZM560.023 130.618C554.252 133.558 548.072 135.617 541.691 136.729L527.177 139.784C521.276 140.467 515.701 142.857 511.136 146.659C509.4 148.339 508.029 150.36 507.109 152.594C506.189 154.828 505.74 157.229 505.79 159.645C505.562 162.246 505.85 164.867 506.636 167.357C507.423 169.848 508.692 172.158 510.373 174.157C512.14 175.992 514.285 177.42 516.659 178.344C519.033 179.267 521.58 179.663 524.123 179.504C529.925 179.685 535.693 178.541 540.987 176.159C546.281 173.777 550.964 170.218 554.676 165.755C556.45 163.491 557.749 160.893 558.496 158.116C559.221 154.859 559.478 151.516 559.259 148.187H560.023V130.618ZM781.539 83.2598V84.0234C776.647 83.7683 771.771 84.7548 767.364 86.8916C762.957 89.0285 759.161 92.2466 756.332 96.2451C749.657 106.418 746.442 118.473 747.166 130.618C746.498 142.518 749.715 154.314 756.332 164.228C759.302 168.132 763.148 171.284 767.56 173.43C771.972 175.575 776.827 176.654 781.732 176.58C786.637 176.506 791.457 175.28 795.801 173.002C800.146 170.724 803.895 167.457 806.746 163.464C813.383 152.991 816.587 140.707 815.912 128.326C816.468 116.915 813.246 105.64 806.746 96.2451C803.954 92.1566 800.188 88.8278 795.787 86.5605C791.386 84.2933 786.488 83.1592 781.539 83.2598ZM222.402 83.2598C217.511 83.0047 212.634 83.9911 208.227 86.1279C203.82 88.2648 200.025 91.4822 197.196 95.4805C190.521 105.653 187.305 117.709 188.029 129.854C187.362 141.755 190.579 153.55 197.196 163.464C200.025 167.462 203.82 170.68 208.227 172.816C212.634 174.953 217.511 175.94 222.402 175.685C227.363 175.856 232.287 174.753 236.7 172.479C241.113 170.206 244.869 166.838 247.609 162.699C254.246 152.226 257.451 139.943 256.776 127.562C257.332 116.152 254.109 104.875 247.609 95.4805C244.732 91.5329 240.927 88.3538 236.532 86.2227C232.136 84.0914 227.284 83.074 222.402 83.2598ZM943.092 81.9658C937.987 81.9659 932.938 83.0326 928.268 85.0967C923.599 87.1608 919.412 90.1775 915.976 93.9531C909.086 104.315 905.86 116.683 906.81 129.09C905.914 141.252 909.143 153.363 915.976 163.464C919.472 167.138 923.679 170.063 928.341 172.062C933.002 174.062 938.021 175.093 943.092 175.093C948.164 175.093 953.184 174.062 957.845 172.062C962.507 170.063 966.714 167.138 970.21 163.464C977.099 153.388 980.333 141.258 979.376 129.09C980.326 116.683 977.1 104.314 970.21 93.9531C966.773 90.1773 962.586 87.1608 957.917 85.0967C953.247 83.0325 948.198 81.9658 943.092 81.9658ZM84.9948 83.7637C80.8684 82.0332 76.3815 81.3352 71.9245 81.7314C67.3247 81.4381 62.7268 82.3391 58.5778 84.3467C54.4289 86.3543 50.8692 89.4005 48.2448 93.1895C44.624 99.2718 42.2851 106.031 41.3708 113.05H102.478C102.21 105.422 99.8302 98.0179 95.6042 91.6621C92.7631 88.2054 89.121 85.4941 84.9948 83.7637Z" fill="white"/>
</svg>
