<svg width="150" height="150" viewBox="0 0 150 150" fill="none" xmlns="http://www.w3.org/2000/svg">
<path d="M48.4031 101.41C55.3743 108.434 64.8403 112.42 74.7389 112.5L74.8902 150C55.0142 149.96 35.9659 142.041 21.9256 127.98C7.88534 113.919 -4.03957e-05 94.8651 0 75V0H75.0415C88.207 0.014549 101.137 3.49061 112.533 10.0792C123.929 16.6677 133.391 26.1369 139.967 37.5359C146.544 48.9349 150.004 61.8625 150 75.0207C149.996 88.1789 146.529 101.105 139.946 112.5H75.3441C85.2952 112.46 94.8228 108.471 101.831 101.41C108.839 94.3486 112.754 84.7944 112.714 74.8488C112.673 64.9032 108.682 55.3808 101.617 48.3766C94.5521 41.3723 84.9926 37.4599 75.0415 37.5H37.5208V75C37.5204 84.8934 41.432 94.3862 48.4031 101.41Z" fill="#2B7FFF"/>
</svg>
