<svg width="214" height="38" viewBox="0 0 214 38" fill="none" xmlns="http://www.w3.org/2000/svg">
<path d="M59.3115 27.7005C58.4392 27.7548 57.5657 27.6146 56.7542 27.29C55.9428 26.9654 55.2136 26.4646 54.6194 25.8237C53.5469 24.6171 53.0106 22.852 53.0106 20.5283C52.9106 18.7209 53.5107 16.9445 54.6864 15.5681C55.2847 14.9555 56.0066 14.4772 56.804 14.1652C57.6015 13.8531 58.4562 13.7144 59.3115 13.7583C60.1781 13.7002 61.0471 13.832 61.8575 14.1446C62.668 14.4572 63.4004 14.943 64.0035 15.5681C65.076 16.7746 65.6123 18.5174 65.6123 20.7964C65.6269 21.0664 65.6043 21.337 65.5452 21.6008H56.5632C56.5693 22.4292 56.8011 23.2403 57.2335 23.9468C57.528 24.2927 57.9002 24.5641 58.3195 24.7389C58.7389 24.9136 59.1936 24.9867 59.6466 24.9523C60.1742 24.9483 60.6883 24.7847 61.1213 24.4831C61.3195 24.3663 61.4926 24.2113 61.6307 24.0273C61.7687 23.8432 61.869 23.6336 61.9256 23.4106H65.4782C65.2144 24.688 64.4707 25.8156 63.4003 26.561C62.1889 27.3566 60.7597 27.7549 59.3115 27.7005ZM61.9926 19.3888C61.9691 18.7194 61.7602 18.0697 61.3894 17.512C61.1401 17.2086 60.8205 16.9707 60.4584 16.8189C60.0963 16.667 59.7026 16.6058 59.3115 16.6406C58.9078 16.6148 58.5044 16.6939 58.1403 16.8701C57.7762 17.0462 57.4638 17.3135 57.2335 17.646C56.9158 18.1798 56.7105 18.7728 56.6303 19.3888H61.9926ZM71.5779 27.7005C70.791 27.7242 70.0098 27.5603 69.2988 27.2223C68.5878 26.8843 67.9675 26.3819 67.4891 25.7566C66.3924 24.2415 65.8483 22.3961 65.9474 20.5283C65.8649 18.7661 66.4113 17.0318 67.4891 15.6351C67.978 15.0262 68.6021 14.5396 69.3118 14.2138C70.0216 13.888 70.7974 13.7321 71.5779 13.7583C72.2896 13.7463 72.9931 13.9116 73.6249 14.2392C74.2568 14.5669 74.7972 15.0466 75.1975 15.6351L75.3316 15.8362V9.46839H78.8171V27.3654H75.3986V25.6896H75.3316C74.9212 26.3092 74.3634 26.8173 73.7082 27.1682C73.0531 27.5192 72.3211 27.7021 71.5779 27.7005ZM72.5163 16.7747C72.0871 16.7523 71.6592 16.8389 71.2724 17.0264C70.8856 17.2139 70.5526 17.4962 70.3043 17.8471C69.7186 18.7398 69.4365 19.7977 69.5 20.8635C69.4414 21.9078 69.7237 22.9428 70.3043 23.8128C70.5526 24.1637 70.8856 24.446 71.2724 24.6335C71.6592 24.8211 72.0871 24.9076 72.5163 24.8853C72.9517 24.9003 73.3837 24.8035 73.7709 24.604C74.1582 24.4045 74.4878 24.109 74.7283 23.7457C75.3107 22.8267 75.5919 21.7488 75.5327 20.6624C75.5814 19.661 75.2987 18.6715 74.7283 17.8471C74.4758 17.5007 74.142 17.2217 73.7562 17.0347C73.3705 16.8476 72.9447 16.7583 72.5163 16.7747ZM84.2465 22.4052C84.1937 23.0542 84.3849 23.6995 84.7828 24.215C84.9924 24.4244 85.2444 24.5866 85.5219 24.6906C85.7993 24.7947 86.0958 24.8382 86.3915 24.8182C86.7757 24.8455 87.1612 24.7876 87.5205 24.6485C87.8797 24.5095 88.2037 24.2928 88.4694 24.0139C89.0079 23.3298 89.271 22.469 89.2068 21.6008V14.1605H92.6923V27.4324H89.3408V25.4215L88.8716 26.0918C88.4245 26.6497 87.8506 27.0929 87.1978 27.3844C86.5449 27.6758 85.8318 27.8072 85.1179 27.7675C84.5164 27.8085 83.913 27.7223 83.3471 27.5144C82.7812 27.3065 82.2654 26.9816 81.8335 26.561C80.996 25.6253 80.5624 24.3965 80.6269 23.1425V14.1605H84.1125L84.2465 22.4052ZM97.9206 27.7005C96.8351 27.7422 95.7765 27.3572 94.9713 26.628C94.5975 26.2768 94.3026 25.8502 94.1062 25.3764C93.9097 24.9026 93.8162 24.3925 93.8318 23.8798C93.7823 22.8253 94.1426 21.7925 94.8373 20.9975C95.6365 20.2242 96.6784 19.7506 97.7866 19.6569L100.066 19.3218C100.575 19.2658 101.073 19.1301 101.54 18.9196C101.635 18.8718 101.719 18.8057 101.788 18.7252C101.857 18.6446 101.91 18.5513 101.942 18.4504C102.051 18.2446 102.097 18.0118 102.076 17.7801C102.049 17.5985 101.98 17.4256 101.876 17.2746C101.771 17.1236 101.633 16.9985 101.473 16.9087C100.942 16.6126 100.338 16.4732 99.7304 16.5065C99.1765 16.47 98.6284 16.6368 98.1888 16.9757C97.9914 17.152 97.8351 17.3694 97.7309 17.6126C97.6267 17.8558 97.577 18.1189 97.5855 18.3834H94.234C94.2231 17.7189 94.3621 17.0604 94.6406 16.457C94.9191 15.8536 95.33 15.3207 95.8427 14.8978C96.8258 14.1381 98.2781 13.7583 100.2 13.7583C101.576 13.6947 102.938 14.0703 104.087 14.8308C104.535 15.1489 104.897 15.572 105.142 16.0629C105.388 16.5538 105.509 17.0974 105.495 17.646V25.0863C105.465 25.5154 105.51 25.9465 105.629 26.3599C105.753 26.6104 105.969 26.8028 106.232 26.8962V27.3654H102.412C102.253 26.8628 102.141 26.3467 102.076 25.8237C101.56 26.4353 100.912 26.922 100.181 27.247C99.4492 27.5721 98.6536 27.7272 97.8536 27.7005H97.9206ZM102.144 22.4722V20.9305C101.637 21.1885 101.095 21.3692 100.535 21.4667L99.2612 21.7349C98.7433 21.7948 98.2542 22.0045 97.8536 22.3381C97.7012 22.4856 97.5809 22.6629 97.5002 22.859C97.4195 23.055 97.38 23.2656 97.3844 23.4776C97.3644 23.7059 97.3896 23.9359 97.4586 24.1545C97.5277 24.373 97.6391 24.5758 97.7866 24.7512C97.9416 24.9122 98.1299 25.0376 98.3382 25.1186C98.5465 25.1996 98.77 25.2343 98.9931 25.2204C99.5023 25.2363 100.008 25.1359 100.473 24.9269C100.938 24.7178 101.348 24.4055 101.674 24.0139C101.83 23.8152 101.944 23.5873 102.009 23.3436C102.073 23.0578 102.096 22.7644 102.076 22.4722H102.144ZM107.305 14.1605H110.656V16.5065L111.058 15.7692C111.366 15.1962 111.819 14.7146 112.372 14.3732C112.925 14.0318 113.559 13.8428 114.209 13.8253H115.013V17.3779H113.941C113.505 17.3409 113.066 17.3932 112.651 17.5315C112.236 17.6698 111.854 17.8912 111.528 18.1823C111.24 18.5108 111.021 18.8934 110.882 19.3078C110.744 19.7221 110.69 20.1598 110.723 20.5953V27.4994H107.305V14.1605ZM120.644 27.7675C119.857 27.7912 119.076 27.6273 118.365 27.2893C117.654 26.9513 117.033 26.4489 116.555 25.8237C115.458 24.3085 114.914 22.4631 115.013 20.5953C114.931 18.8331 115.477 17.0989 116.555 15.7022C117.044 15.0932 117.668 14.6066 118.378 14.2808C119.087 13.9551 119.863 13.7991 120.644 13.8253C121.355 13.8133 122.059 13.9786 122.691 14.3062C123.323 14.6339 123.863 15.1136 124.263 15.7022L124.397 15.9033V9.53543H127.883V27.4324H124.464V25.7566H124.397C123.979 26.3639 123.418 26.8588 122.764 27.1978C122.109 27.5368 121.381 27.7095 120.644 27.7005V27.7675ZM121.582 16.8417C121.153 16.8193 120.725 16.9059 120.338 17.0934C119.951 17.2809 119.618 17.5633 119.37 17.9142C118.784 18.8068 118.502 19.8647 118.566 20.9305C118.507 21.9748 118.79 23.0098 119.37 23.8798C119.631 24.2225 119.968 24.4991 120.355 24.6874C120.743 24.8757 121.169 24.9704 121.599 24.9638C122.03 24.9573 122.452 24.8497 122.834 24.6498C123.215 24.4499 123.544 24.1632 123.794 23.8128C124.377 22.8937 124.658 21.8159 124.599 20.7294C124.647 19.7281 124.365 18.7386 123.794 17.9142C123.549 17.5554 123.219 17.2633 122.832 17.0643C122.446 16.8654 122.017 16.7658 121.582 16.7747V16.8417ZM130.832 25.8907C130.209 25.2172 129.727 24.4249 129.416 23.5612C129.105 22.6975 128.971 21.78 129.022 20.8635C128.968 19.9263 129.1 18.9876 129.411 18.1017C129.721 17.2158 130.205 16.4002 130.832 15.7022C132.19 14.4681 133.958 13.7843 135.792 13.7843C137.627 13.7843 139.395 14.4681 140.753 15.7022C141.38 16.4002 141.863 17.2158 142.174 18.1017C142.485 18.9876 142.617 19.9263 142.563 20.8635C142.61 21.7796 142.474 22.6961 142.164 23.5593C141.853 24.4224 141.373 25.215 140.753 25.8907C139.382 27.0972 137.619 27.7627 135.792 27.7627C133.966 27.7627 132.203 27.0972 130.832 25.8907ZM138.139 23.8128C138.743 22.9286 139.027 21.8642 138.943 20.7964C139.026 19.7077 138.743 18.6223 138.139 17.7131C137.837 17.3817 137.47 17.117 137.06 16.9359C136.65 16.7547 136.207 16.6612 135.759 16.6612C135.311 16.6612 134.868 16.7547 134.458 16.9359C134.048 17.117 133.681 17.3817 133.379 17.7131C132.775 18.6223 132.492 19.7077 132.575 20.7964C132.496 21.8637 132.78 22.9264 133.379 23.8128C133.686 24.1352 134.055 24.392 134.464 24.5674C134.873 24.7428 135.314 24.8333 135.759 24.8333C136.204 24.8333 136.644 24.7428 137.054 24.5674C137.463 24.392 137.832 24.1352 138.139 23.8128ZM143.702 14.1605H147.054V16.1043L147.255 15.7692C147.656 15.1408 148.212 14.626 148.869 14.2739C149.526 13.9218 150.263 13.7443 151.008 13.7583C151.778 13.7374 152.543 13.896 153.241 14.2218C153.939 14.5476 154.551 15.0315 155.03 15.6351C156.103 17.0346 156.648 18.7668 156.572 20.5283C156.665 22.3955 156.122 24.2391 155.03 25.7566C154.562 26.3766 153.953 26.8763 153.254 27.2143C152.555 27.5523 151.785 27.719 151.008 27.7005C150.287 27.7118 149.575 27.5467 148.932 27.2196C148.29 26.8924 147.737 26.4133 147.322 25.8237H147.255V32.5937H143.769L143.702 14.1605ZM150.003 24.8853C150.431 24.9016 150.857 24.8123 151.243 24.6252C151.628 24.4382 151.962 24.1592 152.215 23.8128C152.8 22.9449 153.083 21.9083 153.019 20.8635C153.078 19.7981 152.796 18.7417 152.215 17.8471C151.958 17.5134 151.628 17.2431 151.25 17.0571C150.873 16.871 150.457 16.7743 150.036 16.7743C149.615 16.7743 149.2 16.871 148.822 17.0571C148.444 17.2431 148.115 17.5134 147.858 17.8471C147.275 18.7662 146.994 19.8441 147.054 20.9305C147.005 21.9318 147.287 22.9213 147.858 23.7457C148.096 24.0951 148.416 24.3813 148.79 24.5797C149.164 24.7782 149.58 24.8831 150.003 24.8853ZM160.996 27.7675C159.91 27.8092 158.852 27.4243 158.046 26.6951C157.673 26.3439 157.378 25.9172 157.181 25.4434C156.985 24.9696 156.891 24.4595 156.907 23.9468C156.857 22.8923 157.218 21.8595 157.912 21.0646C158.712 20.2912 159.753 19.8177 160.862 19.724L163.141 19.3888C163.65 19.3328 164.148 19.1971 164.615 18.9866C164.71 18.9388 164.794 18.8727 164.863 18.7922C164.932 18.7117 164.985 18.6183 165.017 18.5174C165.126 18.3116 165.172 18.0788 165.152 17.8471C165.124 17.6655 165.055 17.4927 164.951 17.3416C164.846 17.1906 164.709 17.0655 164.548 16.9757C164.017 16.6797 163.413 16.5402 162.806 16.5736C162.252 16.537 161.703 16.7038 161.264 17.0428C161.066 17.219 160.91 17.4364 160.806 17.6796C160.702 17.9228 160.652 18.1859 160.661 18.4504H157.309C157.298 17.7859 157.437 17.1275 157.716 16.524C157.994 15.9206 158.405 15.3877 158.918 14.9648C159.901 14.2052 161.353 13.8253 163.275 13.8253C164.652 13.7617 166.013 14.1373 167.162 14.8978C167.61 15.216 167.972 15.639 168.217 16.1299C168.463 16.6208 168.584 17.1644 168.57 17.7131V25.1534C168.54 25.5825 168.585 26.0135 168.704 26.4269C168.828 26.6774 169.044 26.8698 169.307 26.9632V27.4324H165.554C165.395 26.9298 165.283 26.4137 165.219 25.8907C164.689 26.4993 164.027 26.9787 163.283 27.2924C162.54 27.6061 161.734 27.7457 160.929 27.7005L160.996 27.7675ZM165.219 22.5392V20.9975C164.712 21.2555 164.17 21.4363 163.61 21.5338L162.336 21.8019C161.818 21.8618 161.329 22.0715 160.929 22.4052C160.776 22.5526 160.656 22.7299 160.575 22.926C160.495 23.1221 160.455 23.3327 160.459 23.5447C160.439 23.773 160.465 24.003 160.534 24.2215C160.603 24.44 160.714 24.6428 160.862 24.8182C161.017 24.9792 161.205 25.1046 161.413 25.1856C161.622 25.2666 161.845 25.3014 162.068 25.2874C162.577 25.3033 163.084 25.2029 163.548 24.9939C164.013 24.7848 164.424 24.4726 164.749 24.0809C164.905 23.8823 165.019 23.6543 165.085 23.4106C165.155 23.1031 165.177 22.7866 165.152 22.4722L165.219 22.5392ZM169.173 14.1605H172.994L175.809 24.0809L178.625 14.1605H182.311L177.552 27.4324H173.932L169.173 14.1605ZM186.266 27.7675C185.18 27.8092 184.122 27.4243 183.317 26.6951C182.943 26.3439 182.648 25.9172 182.451 25.4434C182.255 24.9696 182.162 24.4595 182.177 23.9468C182.128 22.8923 182.488 21.8595 183.183 21.0646C183.982 20.2912 185.024 19.8177 186.132 19.724L188.411 19.3888C188.92 19.3328 189.418 19.1971 189.886 18.9866C189.98 18.9388 190.064 18.8727 190.133 18.7922C190.203 18.7117 190.255 18.6183 190.288 18.5174C190.396 18.3116 190.443 18.0788 190.422 17.8471C190.394 17.6655 190.326 17.4927 190.221 17.3416C190.116 17.1906 189.979 17.0655 189.819 16.9757C189.287 16.6797 188.683 16.5402 188.076 16.5736C187.522 16.537 186.974 16.7038 186.534 17.0428C186.337 17.219 186.18 17.4364 186.076 17.6796C185.972 17.9228 185.922 18.1859 185.931 18.4504H182.579C182.568 17.7859 182.707 17.1275 182.986 16.524C183.264 15.9206 183.675 15.3877 184.188 14.9648C185.171 14.2052 186.623 13.8253 188.545 13.8253C189.922 13.7617 191.283 14.1373 192.433 14.8978C192.88 15.216 193.242 15.639 193.488 16.1299C193.733 16.6208 193.854 17.1644 193.84 17.7131V25.1534C193.81 25.5825 193.856 26.0135 193.974 26.4269C194.098 26.6774 194.314 26.8698 194.578 26.9632V27.4324H190.824C190.666 26.9298 190.553 26.4137 190.489 25.8907C189.959 26.4993 189.297 26.9787 188.553 27.2924C187.81 27.6061 187.005 27.7457 186.199 27.7005L186.266 27.7675ZM190.489 22.5392V20.9975C189.982 21.2555 189.44 21.4363 188.88 21.5338L187.607 21.8019C187.089 21.8618 186.599 22.0715 186.199 22.4052C186.047 22.5526 185.926 22.7299 185.846 22.926C185.765 23.1221 185.725 23.3327 185.73 23.5447C185.71 23.773 185.735 24.003 185.804 24.2215C185.873 24.44 185.984 24.6428 186.132 24.8182C186.287 24.9792 186.475 25.1046 186.684 25.1856C186.892 25.2666 187.115 25.3014 187.338 25.2874C187.848 25.3033 188.354 25.2029 188.818 24.9939C189.283 24.7848 189.694 24.4726 190.02 24.0809C190.175 23.8823 190.289 23.6543 190.355 23.4106C190.425 23.1031 190.448 22.7866 190.422 22.4722L190.489 22.5392ZM195.717 14.1605H199.069V16.1043L199.538 15.4341C199.985 14.8761 200.559 14.433 201.212 14.1415C201.865 13.85 202.578 13.7187 203.292 13.7583C203.897 13.7303 204.503 13.829 205.068 14.0483C205.634 14.2676 206.147 14.6026 206.576 15.0319C207.413 15.9676 207.847 17.1963 207.783 18.4504V27.3654H204.297V19.1207C204.343 18.4724 204.153 17.8292 203.761 17.3109C203.551 17.1014 203.299 16.9392 203.022 16.8352C202.744 16.7312 202.448 16.6877 202.152 16.7076C201.757 16.6749 201.36 16.7301 200.989 16.8692C200.618 17.0083 200.283 17.2278 200.007 17.512C199.469 18.196 199.206 19.0568 199.27 19.925V27.4324H195.784L195.717 14.1605ZM209.793 9.40137H213.346V12.6188H209.793V9.40137ZM209.86 14.1605H213.346V27.4324H209.86V14.1605Z" fill="white"/>
<path d="M12.0107 25.1638C13.7405 26.9068 16.0894 27.8959 18.5457 27.9157L18.5832 37.2209C13.6512 37.211 8.92456 35.2458 5.44061 31.7568C1.95666 28.2677 -1.00238e-05 23.5397 0 18.6104V0H18.6207C21.8876 0.00361018 25.096 0.866159 27.9239 2.50104C30.7517 4.13592 33.0995 6.48559 34.7313 9.31413C36.3632 12.1427 37.2218 15.3505 37.2209 18.6156C37.22 21.8807 36.3596 25.088 34.7262 27.9157H18.6958C21.1651 27.9057 23.5293 26.9158 25.2682 25.1637C27.0072 23.4116 27.9786 21.0408 27.9687 18.5729C27.9587 16.105 26.9682 13.7422 25.2152 12.0041C23.4621 10.2661 21.09 9.29527 18.6207 9.30522H9.31037V18.6104C9.31029 21.0654 10.2809 23.4209 12.0107 25.1638Z" fill="#9D8964"/>
</svg>
