<svg width="162" height="162" viewBox="0 0 162 162" fill="none" xmlns="http://www.w3.org/2000/svg">
<path d="M52.2754 109.523C59.8043 117.109 70.0275 121.414 80.718 121.5L80.8814 162C59.4153 161.957 38.8432 153.404 23.6797 138.218C8.51616 123.032 -4.36274e-05 102.454 0 81V0H81.0448C95.2635 0.0157129 109.228 3.76986 121.536 10.8855C133.844 18.0012 144.062 28.2278 151.165 40.5388C158.267 52.8497 162.004 66.8115 162 81.0224C161.996 95.2333 158.251 109.193 151.142 121.5H81.3716C92.1188 121.457 102.409 117.148 109.977 109.522C117.546 101.896 121.774 91.578 121.731 80.8367C121.687 70.0954 117.376 59.8113 109.746 52.2467C102.116 44.6821 91.792 40.4567 81.0448 40.5H40.5224V81C40.5221 91.6849 44.7465 101.937 52.2754 109.523Z" fill="white"/>
</svg>
