<svg width="297" height="297" viewBox="0 0 297 297" fill="none" xmlns="http://www.w3.org/2000/svg">
<path d="M95.8382 200.792C109.641 214.7 128.384 222.592 147.983 222.75L148.283 297C108.928 296.921 71.2126 281.24 43.4128 253.4C15.613 225.559 -7.99835e-05 187.833 0 148.5V0H148.582C174.65 0.028807 200.251 6.91142 222.816 19.9568C245.38 33.0021 264.114 51.7511 277.135 74.3211C290.156 96.8911 297.007 122.488 297 148.541C296.993 174.594 290.128 200.187 277.094 222.75H149.181C168.885 222.671 187.749 214.772 201.625 200.791C215.501 186.81 223.252 167.893 223.173 148.201C223.093 128.508 215.19 109.654 201.202 95.7856C187.213 81.9172 168.285 74.1706 148.582 74.25H74.2911V148.5C74.2905 168.089 82.0353 186.885 95.8382 200.792Z" fill="#254EDB"/>
</svg>
