<svg width="289" height="51" viewBox="0 0 289 51" fill="none" xmlns="http://www.w3.org/2000/svg">
<g clip-path="url(#clip0_1302_7)">
<path d="M80.1631 37.4384C78.9842 37.5118 77.8037 37.3223 76.707 36.8836C75.6102 36.4449 74.6247 35.768 73.8216 34.9018C72.3721 33.2711 71.6474 30.8855 71.6474 27.7449C71.5122 25.3022 72.3233 22.9013 73.9122 21.0411C74.7208 20.2131 75.6965 19.5667 76.7743 19.145C77.8521 18.7232 79.0073 18.5358 80.1631 18.5951C81.3345 18.5165 82.5089 18.6947 83.6042 19.1172C84.6996 19.5397 85.6894 20.1963 86.5046 21.0411C87.9541 22.6718 88.6789 25.0272 88.6789 28.1073C88.6986 28.4721 88.6681 28.8379 88.5883 29.1944H76.4488C76.457 30.314 76.7702 31.4102 77.3547 32.3652C77.7528 32.8327 78.2557 33.1995 78.8225 33.4356C79.3893 33.6718 80.0038 33.7706 80.6161 33.7241C81.3292 33.7187 82.024 33.4976 82.6091 33.0899C82.877 32.9321 83.111 32.7227 83.2976 32.4739C83.4842 32.2251 83.6197 31.9419 83.6962 31.6404H88.4977C88.1412 33.3669 87.136 34.8909 85.6893 35.8983C84.0521 36.9736 82.1205 37.512 80.1631 37.4384ZM83.7868 26.2049C83.755 25.3002 83.4727 24.4221 82.9715 23.6683C82.6345 23.2583 82.2026 22.9367 81.7132 22.7315C81.2238 22.5263 80.6917 22.4436 80.1631 22.4906C79.6176 22.4558 79.0723 22.5626 78.5802 22.8007C78.0882 23.0388 77.666 23.4001 77.3547 23.8495C76.9253 24.5708 76.6478 25.3724 76.5394 26.2049H83.7868ZM96.7416 37.4384C95.6781 37.4705 94.6222 37.2489 93.6613 36.7921C92.7004 36.3352 91.862 35.6562 91.2155 34.8112C89.7332 32.7634 88.9978 30.2693 89.1318 27.7449C89.0204 25.3632 89.7588 23.0194 91.2155 21.1317C91.8763 20.3087 92.7197 19.651 93.6789 19.2107C94.6382 18.7704 95.6868 18.5596 96.7416 18.5951C97.7035 18.5789 98.6542 18.8022 99.5082 19.245C100.362 19.6879 101.093 20.3362 101.634 21.1317L101.815 21.4035V12.7971H106.526V36.9854H101.905V34.7206H101.815C101.26 35.558 100.506 36.2447 99.6208 36.719C98.7354 37.1934 97.7461 37.4405 96.7416 37.4384ZM98.0099 22.6718C97.4298 22.6415 96.8514 22.7585 96.3287 23.012C95.806 23.2654 95.3559 23.647 95.0204 24.1212C94.2287 25.3277 93.8474 26.7574 93.9332 28.1979C93.8541 29.6093 94.2356 31.0082 95.0204 32.184C95.3559 32.6582 95.806 33.0398 96.3287 33.2933C96.8514 33.5467 97.4298 33.6638 98.0099 33.6335C98.5983 33.6539 99.1821 33.523 99.7056 33.2533C100.229 32.9837 100.674 32.5843 100.999 32.0934C101.787 30.8513 102.167 29.3945 102.087 27.9261C102.153 26.5728 101.77 25.2355 100.999 24.1212C100.658 23.653 100.207 23.2759 99.6857 23.0232C99.1644 22.7704 98.5889 22.6497 98.0099 22.6718ZM113.864 30.2816C113.792 31.1587 114.051 32.0309 114.588 32.7276C114.872 33.0106 115.212 33.2298 115.587 33.3705C115.962 33.5111 116.363 33.5699 116.763 33.5429C117.282 33.5798 117.803 33.5015 118.288 33.3135C118.774 33.1256 119.212 32.8327 119.571 32.4558C120.299 31.5313 120.654 30.3679 120.568 29.1944V19.1386H125.278V37.076H120.749V34.3582L120.115 35.2642C119.51 36.0183 118.735 36.6172 117.852 37.0111C116.97 37.405 116.006 37.5826 115.041 37.529C114.228 37.5844 113.413 37.4678 112.648 37.1868C111.883 36.9058 111.186 36.4668 110.602 35.8983C109.471 34.6337 108.884 32.973 108.972 31.2781V19.1386H113.682L113.864 30.2816ZM132.345 37.4384C130.878 37.4948 129.447 36.9745 128.359 35.9889C127.853 35.5142 127.455 34.9376 127.189 34.2973C126.924 33.6569 126.797 32.9675 126.818 32.2746C126.752 30.8494 127.238 29.4535 128.177 28.3791C129.258 27.3339 130.666 26.6939 132.163 26.5673L135.244 26.1143C135.932 26.0386 136.605 25.8552 137.237 25.5707C137.365 25.5061 137.478 25.4168 137.572 25.3079C137.665 25.1991 137.736 25.0729 137.78 24.9366C137.927 24.6584 137.99 24.3438 137.961 24.0307C137.924 23.7852 137.831 23.5516 137.69 23.3475C137.549 23.1434 137.363 22.9742 137.146 22.8529C136.428 22.4528 135.611 22.2643 134.791 22.3094C134.042 22.26 133.301 22.4855 132.707 22.9435C132.44 23.1818 132.229 23.4756 132.088 23.8043C131.947 24.133 131.88 24.4886 131.892 24.846H127.362C127.347 23.9479 127.535 23.058 127.912 22.2424C128.288 21.4269 128.843 20.7066 129.536 20.1352C130.865 19.1084 132.828 18.5951 135.425 18.5951C137.286 18.5091 139.126 19.0167 140.679 20.0446C141.284 20.4745 141.773 21.0464 142.105 21.7098C142.437 22.3732 142.6 23.108 142.582 23.8495V33.9053C142.541 34.4852 142.602 35.0677 142.763 35.6265C142.93 35.9651 143.222 36.2251 143.578 36.3513V36.9854H138.414C138.2 36.3061 138.049 35.6087 137.961 34.9018C137.264 35.7285 136.388 36.3862 135.399 36.8255C134.41 37.2649 133.335 37.4744 132.254 37.4384H132.345ZM138.052 30.3721V28.2885C137.367 28.6372 136.635 28.8815 135.878 29.0133L134.156 29.3756C133.457 29.4567 132.795 29.74 132.254 30.191C132.048 30.3903 131.885 30.6299 131.776 30.8949C131.667 31.1599 131.614 31.4445 131.62 31.731C131.593 32.0396 131.627 32.3504 131.72 32.6458C131.813 32.9412 131.964 33.2152 132.163 33.4523C132.373 33.6699 132.627 33.8393 132.909 33.9488C133.191 34.0583 133.493 34.1053 133.794 34.0865C134.482 34.1079 135.166 33.9723 135.794 33.6897C136.422 33.4071 136.977 32.9851 137.418 32.4558C137.628 32.1873 137.782 31.8792 137.871 31.5499C137.957 31.1636 137.987 30.767 137.961 30.3721H138.052ZM145.028 19.1386H149.557V22.3094L150.101 21.3129C150.516 20.5384 151.128 19.8875 151.876 19.4261C152.624 18.9647 153.48 18.7093 154.359 18.6857H155.446V23.4871H153.996C153.407 23.4371 152.814 23.5078 152.254 23.6947C151.693 23.8816 151.176 24.1809 150.735 24.5742C150.346 25.0182 150.05 25.5354 149.863 26.0954C149.676 26.6554 149.603 27.247 149.648 27.8355V37.1666H145.028V19.1386ZM163.056 37.529C161.992 37.561 160.936 37.3395 159.975 36.8827C159.014 36.4258 158.176 35.7468 157.529 34.9018C156.047 32.854 155.312 30.3599 155.446 27.8355C155.334 25.4538 156.073 23.1099 157.529 21.2223C158.19 20.3993 159.034 19.7416 159.993 19.3013C160.952 18.861 162.001 18.6502 163.056 18.6857C164.017 18.6694 164.968 18.8928 165.822 19.3356C166.676 19.7785 167.407 20.4268 167.948 21.2223L168.129 21.4941V12.8877H172.84V37.076H168.219V34.8112H168.129C167.564 35.6319 166.805 36.3008 165.921 36.759C165.036 37.2172 164.052 37.4505 163.056 37.4384V37.529ZM164.324 22.7623C163.744 22.7321 163.165 22.8491 162.643 23.1026C162.12 23.356 161.67 23.7376 161.334 24.2118C160.543 25.4183 160.161 26.848 160.247 28.2885C160.168 29.6999 160.55 31.0988 161.334 32.2746C161.687 32.7377 162.143 33.1115 162.666 33.366C163.189 33.6205 163.765 33.7485 164.347 33.7397C164.929 33.7309 165.5 33.5855 166.015 33.3153C166.531 33.0451 166.975 32.6576 167.313 32.184C168.101 30.9419 168.481 29.4851 168.401 28.0167C168.467 26.6634 168.084 25.3261 167.313 24.2118C166.982 23.7269 166.536 23.3322 166.014 23.0633C165.492 22.7944 164.911 22.6598 164.324 22.6718V22.7623ZM176.826 34.9924C175.983 34.0821 175.332 33.0113 174.912 31.844C174.491 30.6766 174.31 29.4367 174.38 28.1979C174.306 26.9313 174.485 25.6626 174.905 24.4653C175.324 23.268 175.977 22.1657 176.826 21.2223C178.66 19.5544 181.05 18.6302 183.53 18.6302C186.009 18.6302 188.399 19.5544 190.233 21.2223C191.082 22.1657 191.735 23.268 192.155 24.4653C192.574 25.6626 192.753 26.9313 192.679 28.1979C192.744 29.4362 192.56 30.6748 192.14 31.8414C191.72 33.008 191.072 34.0792 190.233 34.9924C188.381 36.623 185.998 37.5225 183.53 37.5225C181.062 37.5225 178.678 36.623 176.826 34.9924ZM186.7 32.184C187.517 30.989 187.901 29.5505 187.787 28.1073C187.9 26.6359 187.518 25.1689 186.7 23.9401C186.293 23.4922 185.796 23.1345 185.242 22.8897C184.689 22.6448 184.09 22.5184 183.484 22.5184C182.879 22.5184 182.28 22.6448 181.726 22.8897C181.172 23.1345 180.676 23.4922 180.268 23.9401C179.451 25.1689 179.068 26.6359 179.181 28.1073C179.075 29.5498 179.458 30.986 180.268 32.184C180.683 32.6198 181.182 32.9668 181.735 33.2039C182.287 33.441 182.883 33.5633 183.484 33.5633C184.086 33.5633 184.681 33.441 185.234 33.2039C185.787 32.9668 186.286 32.6198 186.7 32.184ZM194.22 19.1386H198.749V21.7658L199.021 21.3129C199.563 20.4636 200.315 19.7678 201.203 19.2919C202.091 18.8161 203.087 18.5762 204.094 18.5951C205.135 18.5668 206.168 18.7812 207.111 19.2215C208.055 19.6618 208.883 20.3158 209.53 21.1317C210.979 23.023 211.717 25.3642 211.613 27.7449C211.74 30.2685 211.005 32.7601 209.53 34.8112C208.897 35.6491 208.074 36.3244 207.129 36.7812C206.184 37.2381 205.144 37.4634 204.094 37.4384C203.12 37.4536 202.157 37.2305 201.288 36.7884C200.42 36.3463 199.672 35.6986 199.112 34.9018H199.021V44.0517H194.31L194.22 19.1386ZM202.735 33.6335C203.314 33.6555 203.89 33.5348 204.411 33.2821C204.932 33.0293 205.384 32.6522 205.725 32.184C206.516 31.011 206.898 29.61 206.812 28.1979C206.891 26.7581 206.511 25.3303 205.725 24.1212C205.378 23.6702 204.932 23.3048 204.422 23.0534C203.911 22.802 203.35 22.6713 202.781 22.6713C202.212 22.6713 201.65 22.802 201.14 23.0534C200.629 23.3048 200.183 23.6702 199.836 24.1212C199.049 25.3634 198.669 26.8202 198.749 28.2885C198.683 29.6419 199.065 30.9792 199.836 32.0934C200.159 32.5655 200.591 32.9523 201.096 33.2206C201.601 33.4888 202.164 33.6305 202.735 33.6335ZM217.593 37.529C216.125 37.5853 214.695 37.0651 213.606 36.0795C213.101 35.6048 212.703 35.0282 212.437 34.3879C212.172 33.7475 212.045 33.0581 212.066 32.3652C211.999 30.94 212.486 29.5441 213.425 28.4697C214.505 27.4245 215.914 26.7845 217.411 26.6578L220.491 26.2049C221.18 26.1292 221.853 25.9458 222.485 25.6613C222.612 25.5967 222.726 25.5074 222.82 25.3985C222.913 25.2897 222.984 25.1635 223.028 25.0272C223.175 24.749 223.237 24.4344 223.209 24.1212C223.172 23.8758 223.079 23.6422 222.938 23.4381C222.797 23.234 222.611 23.0648 222.394 22.9435C221.676 22.5434 220.859 22.3549 220.039 22.4C219.29 22.3506 218.549 22.576 217.955 23.0341C217.688 23.2724 217.477 23.5662 217.336 23.8949C217.195 24.2236 217.128 24.5792 217.14 24.9366H212.61C212.595 24.0385 212.783 23.1486 213.159 22.333C213.536 21.5175 214.091 20.7972 214.784 20.2258C216.113 19.199 218.076 18.6857 220.673 18.6857C222.533 18.5997 224.373 19.1073 225.927 20.1352C226.531 20.5651 227.021 21.1369 227.353 21.8004C227.684 22.4638 227.848 23.1986 227.829 23.9401V33.9959C227.789 34.5758 227.85 35.1583 228.011 35.7171C228.178 36.0557 228.47 36.3157 228.826 36.4419V37.076H223.753C223.539 36.3967 223.387 35.6993 223.3 34.9924C222.584 35.8149 221.689 36.4629 220.684 36.8868C219.679 37.3107 218.591 37.4994 217.502 37.4384L217.593 37.529ZM223.3 30.4627V28.3791C222.615 28.7278 221.882 28.9721 221.126 29.1038L219.404 29.4662C218.704 29.5473 218.043 29.8306 217.502 30.2816C217.296 30.4809 217.133 30.7205 217.024 30.9855C216.915 31.2505 216.862 31.5351 216.868 31.8216C216.841 32.1302 216.875 32.441 216.968 32.7364C217.061 33.0318 217.212 33.3058 217.411 33.5429C217.621 33.7605 217.875 33.9299 218.157 34.0394C218.438 34.1489 218.74 34.1959 219.042 34.1771C219.73 34.1985 220.414 34.0629 221.042 33.7803C221.67 33.4977 222.225 33.0757 222.666 32.5464C222.876 32.2779 223.03 31.9698 223.119 31.6404C223.214 31.2248 223.244 30.7971 223.209 30.3721L223.3 30.4627ZM228.645 19.1386H233.809L237.614 32.5464L241.418 19.1386H246.401L239.969 37.076H235.077L228.645 19.1386ZM251.746 37.529C250.279 37.5853 248.848 37.0651 247.76 36.0795C247.255 35.6048 246.856 35.0282 246.591 34.3879C246.325 33.7475 246.199 33.0581 246.22 32.3652C246.153 30.94 246.64 29.5441 247.579 28.4697C248.659 27.4245 250.067 26.7845 251.565 26.6578L254.645 26.2049C255.334 26.1292 256.006 25.9458 256.638 25.6613C256.766 25.5967 256.88 25.5074 256.973 25.3985C257.066 25.2897 257.137 25.1635 257.182 25.0272C257.328 24.749 257.391 24.4344 257.363 24.1212C257.325 23.8758 257.233 23.6422 257.091 23.4381C256.95 23.234 256.764 23.0648 256.547 22.9435C255.829 22.5434 255.013 22.3549 254.192 22.4C253.443 22.3506 252.703 22.576 252.108 23.0341C251.842 23.2724 251.63 23.5662 251.49 23.8949C251.349 24.2236 251.282 24.5792 251.293 24.9366H246.763C246.749 24.0385 246.937 23.1486 247.313 22.333C247.689 21.5175 248.245 20.7972 248.938 20.2258C250.266 19.199 252.229 18.6857 254.826 18.6857C256.687 18.5997 258.527 19.1073 260.081 20.1352C260.685 20.5651 261.175 21.1369 261.506 21.8004C261.838 22.4638 262.002 23.1986 261.983 23.9401V33.9959C261.943 34.5758 262.004 35.1583 262.164 35.7171C262.331 36.0557 262.624 36.3157 262.98 36.4419V37.076H257.906C257.692 36.3967 257.541 35.6993 257.453 34.9924C256.737 35.8149 255.843 36.4629 254.838 36.8868C253.833 37.3107 252.744 37.4994 251.655 37.4384L251.746 37.529ZM257.453 30.4627V28.3791C256.769 28.7278 256.036 28.9721 255.279 29.1038L253.558 29.4662C252.858 29.5473 252.197 29.8306 251.655 30.2816C251.449 30.4809 251.287 30.7205 251.178 30.9855C251.069 31.2505 251.015 31.5351 251.021 31.8216C250.994 32.1302 251.028 32.441 251.122 32.7364C251.215 33.0318 251.366 33.3058 251.565 33.5429C251.774 33.7605 252.029 33.9299 252.31 34.0394C252.592 34.1489 252.894 34.1959 253.196 34.1771C253.884 34.1985 254.568 34.0629 255.196 33.7803C255.824 33.4977 256.379 33.0757 256.819 32.5464C257.03 32.2779 257.184 31.9698 257.272 31.6404C257.367 31.2248 257.398 30.7971 257.363 30.3721L257.453 30.4627ZM264.52 19.1386H269.049V21.7658L269.683 20.8599C270.288 20.1058 271.063 19.5069 271.946 19.113C272.828 18.719 273.792 18.5415 274.757 18.5951C275.576 18.5572 276.393 18.6907 277.158 18.9871C277.922 19.2835 278.616 19.7362 279.196 20.3163C280.327 21.581 280.914 23.2417 280.826 24.9366V36.9854H276.115V25.8425C276.178 24.9663 275.921 24.097 275.391 23.3965C275.107 23.1134 274.767 22.8942 274.392 22.7536C274.017 22.613 273.616 22.5542 273.217 22.5812C272.683 22.537 272.146 22.6116 271.645 22.7995C271.144 22.9875 270.69 23.2842 270.318 23.6683C269.59 24.5928 269.234 25.7562 269.321 26.9296V37.076H264.61L264.52 19.1386ZM283.544 12.7065H288.346V17.055H283.544V12.7065ZM283.635 19.1386H288.346V37.076H283.635V19.1386Z" fill="#27272A"/>
<path d="M16.2329 34.0097C18.5708 36.3653 21.7454 37.7021 25.065 37.7289L25.1158 50.3052C18.45 50.2917 12.0618 47.6358 7.35315 42.9202C2.64449 38.2047 -1.35473e-05 31.8147 0 25.1526V0H25.1665C29.5818 0.00487927 33.9181 1.17064 37.74 3.38023C41.5619 5.58982 44.7349 8.76548 46.9405 12.5883C49.146 16.4112 50.3064 20.7467 50.3052 25.1595C50.304 29.5724 49.1411 33.9072 46.9335 37.7289H25.268C28.6053 37.7154 31.8005 36.3775 34.1508 34.0095C36.5011 31.6415 37.814 28.4373 37.8005 25.1019C37.787 21.7664 36.4484 18.573 34.0791 16.2239C31.7097 13.8749 28.5038 12.5628 25.1665 12.5763H12.5833V25.1526C12.5831 28.4705 13.8949 31.6541 16.2329 34.0097Z" fill="#27272A"/>
</g>
<defs>
<clipPath id="clip0_1302_7">
<rect width="289" height="51" fill="white"/>
</clipPath>
</defs>
</svg>
