<svg width="289" height="51" viewBox="0 0 289 51" fill="none" xmlns="http://www.w3.org/2000/svg">
<path d="M80.1621 37.4384C78.9832 37.5118 77.8027 37.3223 76.706 36.8836C75.6092 36.4449 74.6237 35.768 73.8206 34.9018C72.3711 33.2711 71.6464 30.8855 71.6464 27.7449C71.5112 25.3022 72.3223 22.9013 73.9112 21.0411C74.7198 20.2131 75.6955 19.5667 76.7733 19.145C77.8511 18.7232 79.0063 18.5358 80.1621 18.5951C81.3335 18.5165 82.5079 18.6947 83.6032 19.1172C84.6986 19.5397 85.6884 20.1963 86.5036 21.0411C87.9531 22.6718 88.6779 25.0272 88.6779 28.1073C88.6976 28.4721 88.6671 28.8379 88.5873 29.1944H76.4478C76.456 30.314 76.7692 31.4102 77.3537 32.3652C77.7518 32.8327 78.2547 33.1995 78.8215 33.4356C79.3883 33.6718 80.0028 33.7706 80.6151 33.7241C81.3282 33.7187 82.023 33.4976 82.6081 33.0899C82.876 32.9321 83.11 32.7227 83.2966 32.4739C83.4832 32.2251 83.6187 31.9419 83.6952 31.6404H88.4967C88.1402 33.3669 87.135 34.8909 85.6883 35.8983C84.0511 36.9736 82.1195 37.512 80.1621 37.4384ZM83.7858 26.2049C83.754 25.3002 83.4717 24.4221 82.9705 23.6683C82.6335 23.2583 82.2016 22.9367 81.7122 22.7315C81.2228 22.5263 80.6907 22.4436 80.1621 22.4906C79.6166 22.4558 79.0713 22.5626 78.5792 22.8007C78.0872 23.0388 77.665 23.4001 77.3537 23.8495C76.9243 24.5708 76.6468 25.3724 76.5384 26.2049H83.7858ZM96.7406 37.4384C95.6771 37.4705 94.6212 37.2489 93.6603 36.7921C92.6994 36.3352 91.861 35.6562 91.2145 34.8112C89.7322 32.7634 88.9968 30.2693 89.1308 27.7449C89.0194 25.3632 89.7578 23.0194 91.2145 21.1317C91.8753 20.3087 92.7187 19.651 93.6779 19.2107C94.6372 18.7704 95.6858 18.5596 96.7406 18.5951C97.7025 18.5789 98.6532 18.8022 99.5072 19.245C100.361 19.6879 101.092 20.3362 101.633 21.1317L101.814 21.4035V12.7971H106.525V36.9854H101.904V34.7206H101.814C101.259 35.558 100.505 36.2447 99.6198 36.719C98.7344 37.1934 97.7451 37.4405 96.7406 37.4384ZM98.0089 22.6718C97.4288 22.6415 96.8504 22.7585 96.3277 23.012C95.805 23.2654 95.3549 23.647 95.0194 24.1212C94.2277 25.3277 93.8464 26.7574 93.9322 28.1979C93.8531 29.6093 94.2346 31.0082 95.0194 32.184C95.3549 32.6582 95.805 33.0398 96.3277 33.2933C96.8504 33.5467 97.4288 33.6638 98.0089 33.6335C98.5973 33.6539 99.1811 33.523 99.7046 33.2533C100.228 32.9837 100.673 32.5843 100.998 32.0934C101.786 30.8513 102.166 29.3945 102.086 27.9261C102.152 26.5728 101.769 25.2355 100.998 24.1212C100.657 23.653 100.206 23.2759 99.6847 23.0232C99.1634 22.7704 98.5879 22.6497 98.0089 22.6718ZM113.863 30.2816C113.791 31.1587 114.05 32.0309 114.587 32.7276C114.871 33.0106 115.211 33.2298 115.586 33.3705C115.961 33.5111 116.362 33.5699 116.762 33.5429C117.281 33.5798 117.802 33.5015 118.287 33.3135C118.773 33.1256 119.211 32.8327 119.57 32.4558C120.298 31.5313 120.653 30.3679 120.567 29.1944V19.1386H125.277V37.076H120.748V34.3582L120.114 35.2642C119.509 36.0183 118.734 36.6172 117.851 37.0111C116.969 37.405 116.005 37.5826 115.04 37.529C114.227 37.5844 113.412 37.4678 112.647 37.1868C111.882 36.9058 111.185 36.4668 110.601 35.8983C109.47 34.6337 108.883 32.973 108.971 31.2781V19.1386H113.681L113.863 30.2816ZM132.344 37.4384C130.877 37.4948 129.446 36.9745 128.358 35.9889C127.852 35.5142 127.454 34.9376 127.188 34.2973C126.923 33.6569 126.796 32.9675 126.817 32.2746C126.751 30.8494 127.237 29.4535 128.176 28.3791C129.257 27.3339 130.665 26.6939 132.162 26.5673L135.243 26.1143C135.931 26.0386 136.604 25.8552 137.236 25.5707C137.364 25.5061 137.477 25.4168 137.571 25.3079C137.664 25.1991 137.735 25.0729 137.779 24.9366C137.926 24.6584 137.989 24.3438 137.96 24.0307C137.923 23.7852 137.83 23.5516 137.689 23.3475C137.548 23.1434 137.362 22.9742 137.145 22.8529C136.427 22.4528 135.61 22.2643 134.79 22.3094C134.041 22.26 133.3 22.4855 132.706 22.9435C132.439 23.1818 132.228 23.4756 132.087 23.8043C131.946 24.133 131.879 24.4886 131.891 24.846H127.361C127.346 23.9479 127.534 23.058 127.911 22.2424C128.287 21.4269 128.842 20.7066 129.535 20.1352C130.864 19.1084 132.827 18.5951 135.424 18.5951C137.285 18.5091 139.125 19.0167 140.678 20.0446C141.283 20.4745 141.772 21.0464 142.104 21.7098C142.436 22.3732 142.599 23.108 142.581 23.8495V33.9053C142.54 34.4852 142.601 35.0677 142.762 35.6265C142.929 35.9651 143.221 36.2251 143.577 36.3513V36.9854H138.413C138.199 36.3061 138.048 35.6087 137.96 34.9018C137.263 35.7285 136.387 36.3862 135.398 36.8255C134.409 37.2649 133.334 37.4744 132.253 37.4384H132.344ZM138.051 30.3721V28.2885C137.366 28.6372 136.634 28.8815 135.877 29.0133L134.155 29.3756C133.456 29.4567 132.794 29.74 132.253 30.191C132.047 30.3903 131.884 30.6299 131.775 30.8949C131.666 31.1599 131.613 31.4445 131.619 31.731C131.592 32.0396 131.626 32.3504 131.719 32.6458C131.812 32.9412 131.963 33.2152 132.162 33.4523C132.372 33.6699 132.626 33.8393 132.908 33.9488C133.19 34.0583 133.492 34.1053 133.793 34.0865C134.481 34.1079 135.165 33.9723 135.793 33.6897C136.421 33.4071 136.976 32.9851 137.417 32.4558C137.627 32.1873 137.781 31.8792 137.87 31.5499C137.956 31.1636 137.986 30.767 137.96 30.3721H138.051ZM145.027 19.1386H149.556V22.3094L150.1 21.3129C150.515 20.5384 151.127 19.8875 151.875 19.4261C152.623 18.9647 153.479 18.7093 154.358 18.6857H155.445V23.4871H153.995C153.406 23.4371 152.813 23.5078 152.253 23.6947C151.692 23.8816 151.175 24.1809 150.734 24.5742C150.345 25.0182 150.049 25.5354 149.862 26.0954C149.675 26.6554 149.602 27.247 149.647 27.8355V37.1666H145.027V19.1386ZM163.055 37.529C161.991 37.561 160.935 37.3395 159.974 36.8827C159.013 36.4258 158.175 35.7468 157.528 34.9018C156.046 32.854 155.311 30.3599 155.445 27.8355C155.333 25.4538 156.072 23.1099 157.528 21.2223C158.189 20.3993 159.033 19.7416 159.992 19.3013C160.951 18.861 162 18.6502 163.055 18.6857C164.016 18.6694 164.967 18.8928 165.821 19.3356C166.675 19.7785 167.406 20.4268 167.947 21.2223L168.128 21.4941V12.8877H172.839V37.076H168.218V34.8112H168.128C167.563 35.6319 166.804 36.3008 165.92 36.759C165.035 37.2172 164.051 37.4505 163.055 37.4384V37.529ZM164.323 22.7623C163.743 22.7321 163.164 22.8491 162.642 23.1026C162.119 23.356 161.669 23.7376 161.333 24.2118C160.542 25.4183 160.16 26.848 160.246 28.2885C160.167 29.6999 160.549 31.0988 161.333 32.2746C161.686 32.7377 162.142 33.1115 162.665 33.366C163.188 33.6205 163.764 33.7485 164.346 33.7397C164.928 33.7309 165.499 33.5855 166.014 33.3153C166.53 33.0451 166.974 32.6576 167.312 32.184C168.1 30.9419 168.48 29.4851 168.4 28.0167C168.466 26.6634 168.083 25.3261 167.312 24.2118C166.981 23.7269 166.535 23.3322 166.013 23.0633C165.491 22.7944 164.91 22.6598 164.323 22.6718V22.7623ZM176.825 34.9924C175.982 34.0821 175.331 33.0113 174.911 31.844C174.49 30.6766 174.309 29.4367 174.379 28.1979C174.305 26.9313 174.484 25.6626 174.904 24.4653C175.323 23.268 175.976 22.1657 176.825 21.2223C178.659 19.5544 181.049 18.6302 183.529 18.6302C186.008 18.6302 188.398 19.5544 190.232 21.2223C191.081 22.1657 191.734 23.268 192.154 24.4653C192.573 25.6626 192.752 26.9313 192.678 28.1979C192.743 29.4362 192.559 30.6748 192.139 31.8414C191.719 33.008 191.071 34.0792 190.232 34.9924C188.38 36.623 185.997 37.5225 183.529 37.5225C181.061 37.5225 178.677 36.623 176.825 34.9924ZM186.699 32.184C187.516 30.989 187.9 29.5505 187.786 28.1073C187.899 26.6359 187.517 25.1689 186.699 23.9401C186.292 23.4922 185.795 23.1345 185.241 22.8897C184.688 22.6448 184.089 22.5184 183.483 22.5184C182.878 22.5184 182.279 22.6448 181.725 22.8897C181.171 23.1345 180.675 23.4922 180.267 23.9401C179.45 25.1689 179.067 26.6359 179.18 28.1073C179.074 29.5498 179.457 30.986 180.267 32.184C180.682 32.6198 181.181 32.9668 181.734 33.2039C182.286 33.441 182.882 33.5633 183.483 33.5633C184.085 33.5633 184.68 33.441 185.233 33.2039C185.786 32.9668 186.285 32.6198 186.699 32.184ZM194.219 19.1386H198.748V21.7658L199.02 21.3129C199.562 20.4636 200.314 19.7678 201.202 19.2919C202.09 18.8161 203.086 18.5762 204.093 18.5951C205.134 18.5668 206.167 18.7812 207.11 19.2215C208.054 19.6618 208.882 20.3158 209.529 21.1317C210.978 23.023 211.716 25.3642 211.612 27.7449C211.739 30.2685 211.004 32.7601 209.529 34.8112C208.896 35.6491 208.073 36.3244 207.128 36.7812C206.183 37.2381 205.143 37.4634 204.093 37.4384C203.119 37.4536 202.156 37.2305 201.287 36.7884C200.419 36.3463 199.671 35.6986 199.111 34.9018H199.02V44.0517H194.309L194.219 19.1386ZM202.734 33.6335C203.313 33.6555 203.889 33.5348 204.41 33.2821C204.931 33.0293 205.383 32.6522 205.724 32.184C206.515 31.011 206.897 29.61 206.811 28.1979C206.89 26.7581 206.51 25.3303 205.724 24.1212C205.377 23.6702 204.931 23.3048 204.421 23.0534C203.91 22.802 203.349 22.6713 202.78 22.6713C202.211 22.6713 201.649 22.802 201.139 23.0534C200.628 23.3048 200.182 23.6702 199.835 24.1212C199.048 25.3634 198.668 26.8202 198.748 28.2885C198.682 29.6419 199.064 30.9792 199.835 32.0934C200.158 32.5655 200.59 32.9523 201.095 33.2206C201.6 33.4888 202.163 33.6305 202.734 33.6335ZM217.592 37.529C216.124 37.5853 214.694 37.0651 213.605 36.0795C213.1 35.6048 212.702 35.0282 212.436 34.3879C212.171 33.7475 212.044 33.0581 212.065 32.3652C211.998 30.94 212.485 29.5441 213.424 28.4697C214.504 27.4245 215.913 26.7845 217.41 26.6578L220.49 26.2049C221.179 26.1292 221.852 25.9458 222.484 25.6613C222.611 25.5967 222.725 25.5074 222.819 25.3985C222.912 25.2897 222.983 25.1635 223.027 25.0272C223.174 24.749 223.236 24.4344 223.208 24.1212C223.171 23.8758 223.078 23.6422 222.937 23.4381C222.796 23.234 222.61 23.0648 222.393 22.9435C221.675 22.5434 220.858 22.3549 220.038 22.4C219.289 22.3506 218.548 22.576 217.954 23.0341C217.687 23.2724 217.476 23.5662 217.335 23.8949C217.194 24.2236 217.127 24.5792 217.139 24.9366H212.609C212.594 24.0385 212.782 23.1486 213.158 22.333C213.535 21.5175 214.09 20.7972 214.783 20.2258C216.112 19.199 218.075 18.6857 220.672 18.6857C222.532 18.5997 224.372 19.1073 225.926 20.1352C226.53 20.5651 227.02 21.1369 227.352 21.8004C227.683 22.4638 227.847 23.1986 227.828 23.9401V33.9959C227.788 34.5758 227.849 35.1583 228.01 35.7171C228.177 36.0557 228.469 36.3157 228.825 36.4419V37.076H223.752C223.538 36.3967 223.386 35.6993 223.299 34.9924C222.583 35.8149 221.688 36.4629 220.683 36.8868C219.678 37.3107 218.59 37.4994 217.501 37.4384L217.592 37.529ZM223.299 30.4627V28.3791C222.614 28.7278 221.881 28.9721 221.125 29.1038L219.403 29.4662C218.703 29.5473 218.042 29.8306 217.501 30.2816C217.295 30.4809 217.132 30.7205 217.023 30.9855C216.914 31.2505 216.861 31.5351 216.867 31.8216C216.84 32.1302 216.874 32.441 216.967 32.7364C217.06 33.0318 217.211 33.3058 217.41 33.5429C217.62 33.7605 217.874 33.9299 218.156 34.0394C218.437 34.1489 218.739 34.1959 219.041 34.1771C219.729 34.1985 220.413 34.0629 221.041 33.7803C221.669 33.4977 222.224 33.0757 222.665 32.5464C222.875 32.2779 223.029 31.9698 223.118 31.6404C223.213 31.2248 223.243 30.7971 223.208 30.3721L223.299 30.4627ZM228.644 19.1386H233.808L237.613 32.5464L241.417 19.1386H246.4L239.968 37.076H235.076L228.644 19.1386ZM251.745 37.529C250.278 37.5853 248.847 37.0651 247.759 36.0795C247.254 35.6048 246.855 35.0282 246.59 34.3879C246.324 33.7475 246.198 33.0581 246.219 32.3652C246.152 30.94 246.639 29.5441 247.578 28.4697C248.658 27.4245 250.066 26.7845 251.564 26.6578L254.644 26.2049C255.333 26.1292 256.005 25.9458 256.637 25.6613C256.765 25.5967 256.879 25.5074 256.972 25.3985C257.065 25.2897 257.136 25.1635 257.181 25.0272C257.327 24.749 257.39 24.4344 257.362 24.1212C257.324 23.8758 257.232 23.6422 257.09 23.4381C256.949 23.234 256.763 23.0648 256.546 22.9435C255.828 22.5434 255.012 22.3549 254.191 22.4C253.442 22.3506 252.702 22.576 252.107 23.0341C251.841 23.2724 251.629 23.5662 251.489 23.8949C251.348 24.2236 251.281 24.5792 251.292 24.9366H246.762C246.748 24.0385 246.936 23.1486 247.312 22.333C247.688 21.5175 248.244 20.7972 248.937 20.2258C250.265 19.199 252.228 18.6857 254.825 18.6857C256.686 18.5997 258.526 19.1073 260.08 20.1352C260.684 20.5651 261.174 21.1369 261.505 21.8004C261.837 22.4638 262.001 23.1986 261.982 23.9401V33.9959C261.942 34.5758 262.003 35.1583 262.163 35.7171C262.33 36.0557 262.623 36.3157 262.979 36.4419V37.076H257.905C257.691 36.3967 257.54 35.6993 257.452 34.9924C256.736 35.8149 255.842 36.4629 254.837 36.8868C253.832 37.3107 252.743 37.4994 251.654 37.4384L251.745 37.529ZM257.452 30.4627V28.3791C256.768 28.7278 256.035 28.9721 255.278 29.1038L253.557 29.4662C252.857 29.5473 252.196 29.8306 251.654 30.2816C251.448 30.4809 251.286 30.7205 251.177 30.9855C251.068 31.2505 251.014 31.5351 251.02 31.8216C250.993 32.1302 251.027 32.441 251.121 32.7364C251.214 33.0318 251.365 33.3058 251.564 33.5429C251.773 33.7605 252.028 33.9299 252.309 34.0394C252.591 34.1489 252.893 34.1959 253.195 34.1771C253.883 34.1985 254.567 34.0629 255.195 33.7803C255.823 33.4977 256.378 33.0757 256.818 32.5464C257.029 32.2779 257.183 31.9698 257.271 31.6404C257.366 31.2248 257.397 30.7971 257.362 30.3721L257.452 30.4627ZM264.519 19.1386H269.048V21.7658L269.682 20.8599C270.287 20.1058 271.062 19.5069 271.945 19.113C272.827 18.719 273.791 18.5415 274.756 18.5951C275.575 18.5572 276.392 18.6907 277.157 18.9871C277.921 19.2835 278.615 19.7362 279.195 20.3163C280.326 21.581 280.913 23.2417 280.825 24.9366V36.9854H276.114V25.8425C276.177 24.9663 275.92 24.097 275.39 23.3965C275.106 23.1134 274.766 22.8942 274.391 22.7536C274.016 22.613 273.615 22.5542 273.216 22.5812C272.682 22.537 272.145 22.6116 271.644 22.7995C271.143 22.9875 270.689 23.2842 270.317 23.6683C269.589 24.5928 269.233 25.7562 269.32 26.9296V37.076H264.609L264.519 19.1386ZM283.543 12.7065H288.345V17.055H283.543V12.7065ZM283.634 19.1386H288.345V37.076H283.634V19.1386Z" fill="white"/>
<path d="M16.2329 34.0097C18.5708 36.3653 21.7454 37.7021 25.065 37.7289L25.1158 50.3052C18.45 50.2917 12.0618 47.6358 7.35315 42.9202C2.64449 38.2047 -1.35474e-05 31.8147 0 25.1526V0H25.1665C29.5818 0.00487927 33.9181 1.17064 37.74 3.38023C41.5619 5.58982 44.7349 8.76548 46.9405 12.5883C49.146 16.4112 50.3064 20.7467 50.3052 25.1595C50.304 29.5724 49.1411 33.9072 46.9335 37.7289H25.268C28.6053 37.7154 31.8005 36.3775 34.1508 34.0095C36.5011 31.6415 37.814 28.4373 37.8005 25.1019C37.787 21.7664 36.4484 18.573 34.0791 16.2239C31.7097 13.8749 28.5038 12.5628 25.1665 12.5763H12.5833V25.1526C12.5831 28.4705 13.8949 31.6541 16.2329 34.0097Z" fill="white"/>
</svg>
